<svg xmlns="http://www.w3.org/2000/svg" width="198" height="167" viewBox="0 0 198 167"><g fill="none" fill-rule="evenodd"><path fill="#FFF" d="M136.2 114.248s-1.914 32.025-37.04 32.025-37.038-32.025-37.038-32.025v-1.458c0-1.422 1.205-2.54 2.613-2.407 7.125.68 20.277 2.492 34.425 2.492 14.151 0 27.3-1.812 34.428-2.492 1.407-.134 2.613.985 2.613 2.407v1.458zM73.68 80.566c5.325 0 9.644 4.362 9.644 9.739 0 5.38-4.319 9.739-9.644 9.739s-9.645-4.359-9.645-9.74c0-5.376 4.32-9.738 9.645-9.738zm50.962 0c5.328 0 9.645 4.362 9.645 9.739 0 5.38-4.317 9.739-9.645 9.739-5.325 0-9.645-4.359-9.645-9.74 0-5.376 4.32-9.738 9.645-9.738zM99.16 33.296c-36.506 0-66.101 29.885-66.101 66.748 0 36.866 29.595 66.75 66.1 66.75 36.51 0 66.105-29.884 66.105-66.75 0-36.863-29.595-66.748-66.104-66.748z"/><path fill="#FFF" d="M182.755 61.032C170.775 24.6 137.238.147 99.162.147c-38.08 0-71.614 24.453-83.596 60.885C7.407 61.106.816 67.804.816 76.06v27.88c0 8.303 6.667 15.034 14.889 15.034h8.083c3.66 0 6.63-2.995 6.63-6.694V67.718c0-3.233-2.275-5.935-5.298-6.557C36.616 30.004 65.966 9.297 99.162 9.297c33.192 0 62.543 20.707 74.039 51.864-3.024.622-5.298 3.324-5.298 6.557v44.562c0 3.7 2.969 6.694 6.633 6.694h8.08c8.221 0 14.888-6.731 14.888-15.033V76.06c0-8.257-6.591-14.955-14.75-15.029"/><path fill="#F2F2F2" d="M197.646 76.05v27.893c0 8.305-6.651 15.04-14.88 15.04h-8.082c-3.28 0-6.017-2.416-6.542-5.582.362.058.725.092 1.105.092h8.083c8.228 0 14.88-6.735 14.88-15.043V70.56a14.89 14.89 0 0 0-2.013-7.521c4.459 2.58 7.449 7.448 7.449 13.011m-32.384 24.002c0 36.857-29.595 66.741-66.113 66.741-19.627 0-37.26-8.638-49.385-22.363 11.671 10.486 27.076 16.873 43.948 16.873 36.518 0 66.113-29.884 66.113-66.741 0-17.038-6.324-32.593-16.709-44.397 13.592 12.243 22.146 30.05 22.146 49.887"/></g></svg>